<?xml version="1.0" encoding="UTF-8"?>
<svg width="11px" height="7px" viewBox="0 0 11 7" version="1.1" xmlns="http://www.w3.org/2000/svg" xmlns:xlink="http://www.w3.org/1999/xlink">
    <title>noun-arrow-down-2424963</title>
    <g id="Page-2" stroke="none" stroke-width="1" fill="none" fill-rule="evenodd">
        <g id="Desktop-HD" transform="translate(-149.000000, -754.000000)" fill="#000000" fill-rule="nonzero" stroke="#000000">
            <g id="Group-4" transform="translate(127.000000, 731.000000)">
                <g id="Group-3" transform="translate(11.000000, 10.000000)">
                    <g id="noun-arrow-down-2424963" transform="translate(12.000000, 14.000000)">
                        <path d="M0.544290403,0.000100423002 C0.405161301,0.000100423002 0.263984394,0.0520908736 0.158451462,0.153473145 C-0.052817154,0.356429217 -0.052817154,0.692027406 0.158451462,0.894983478 L4.11179686,4.69278112 C4.21383399,4.79080352 4.35778692,4.84615385 4.4976358,4.84615385 C4.63617016,4.84615385 4.77424156,4.79771318 4.88347474,4.69278112 L8.83141339,0.899852865 C9.05258311,0.699883351 9.05542165,0.356364292 8.84415151,0.15340822 C8.63288138,-0.0495478522 8.28353949,-0.0495478522 8.07227088,0.15340822 L4.50470002,3.58742712 L0.929995831,0.153372722 C0.859507628,0.0856579371 0.730939152,0.0345671707 0.544290403,0.000100423002 Z" id="Path"></path>
                    </g>
                </g>
            </g>
        </g>
    </g>
</svg>